<mxfile host="app.diagrams.net" modified="2023-09-27T12:40:29.774Z" agent="Mozilla/5.0 (Windows NT 10.0; Win64; x64) AppleWebKit/537.36 (KHTML, like Gecko) Chrome/113.0.0.0 Safari/537.36" etag="BZAuK6KA-d08PZ6Gis1a" version="21.8.2" type="github">
  <diagram name="第 1 页" id="uQnc2c0iIG_h71mx5ojg">
    <mxGraphModel dx="1050" dy="580" grid="1" gridSize="10" guides="1" tooltips="1" connect="1" arrows="1" fold="1" page="1" pageScale="1" pageWidth="300000" pageHeight="30000" math="0" shadow="0">
      <root>
        <mxCell id="0" />
        <mxCell id="1" parent="0" />
        <mxCell id="PS2yi4pKl5YuFN-2JHLJ-8" style="edgeStyle=orthogonalEdgeStyle;rounded=0;orthogonalLoop=1;jettySize=auto;html=1;entryX=0;entryY=0.5;entryDx=0;entryDy=0;" parent="1" source="PS2yi4pKl5YuFN-2JHLJ-3" target="PS2yi4pKl5YuFN-2JHLJ-4" edge="1">
          <mxGeometry relative="1" as="geometry" />
        </mxCell>
        <mxCell id="PS2yi4pKl5YuFN-2JHLJ-9" value="1：n" style="edgeLabel;html=1;align=center;verticalAlign=middle;resizable=0;points=[];" parent="PS2yi4pKl5YuFN-2JHLJ-8" vertex="1" connectable="0">
          <mxGeometry x="-0.016" y="-1" relative="1" as="geometry">
            <mxPoint as="offset" />
          </mxGeometry>
        </mxCell>
        <mxCell id="PS2yi4pKl5YuFN-2JHLJ-3" value="&lt;div style=&quot;box-sizing:border-box;width:100%;background:#e4e4e4;padding:2px;&quot;&gt;团队表彰&lt;/div&gt;&lt;table style=&quot;width:100%;font-size:1em;&quot; cellpadding=&quot;2&quot; cellspacing=&quot;0&quot;&gt;&lt;tbody&gt;&lt;tr&gt;&lt;td&gt;PK&lt;/td&gt;&lt;td&gt;团队表彰Id&lt;/td&gt;&lt;/tr&gt;&lt;tr&gt;&lt;td&gt;&lt;/td&gt;&lt;td&gt;活动Id&lt;/td&gt;&lt;/tr&gt;&lt;tr&gt;&lt;td&gt;&lt;/td&gt;&lt;td&gt;&lt;br&gt;&lt;/td&gt;&lt;/tr&gt;&lt;/tbody&gt;&lt;/table&gt;" style="verticalAlign=top;align=left;overflow=fill;html=1;whiteSpace=wrap;fillColor=#d5e8d4;strokeColor=#82b366;" parent="1" vertex="1">
          <mxGeometry x="210" y="250" width="150" height="80" as="geometry" />
        </mxCell>
        <mxCell id="PS2yi4pKl5YuFN-2JHLJ-4" value="&lt;div style=&quot;box-sizing:border-box;width:100%;background:#e4e4e4;padding:2px;&quot;&gt;团队表彰图片&lt;/div&gt;&lt;table style=&quot;width:100%;font-size:1em;&quot; cellpadding=&quot;2&quot; cellspacing=&quot;0&quot;&gt;&lt;tbody&gt;&lt;tr&gt;&lt;td&gt;PK&lt;/td&gt;&lt;td&gt;团队表彰图片Id&lt;/td&gt;&lt;/tr&gt;&lt;tr&gt;&lt;td&gt;&lt;/td&gt;&lt;td&gt;团队表彰Id&lt;/td&gt;&lt;/tr&gt;&lt;tr&gt;&lt;td&gt;&lt;/td&gt;&lt;td&gt;&lt;br&gt;&lt;/td&gt;&lt;/tr&gt;&lt;/tbody&gt;&lt;/table&gt;" style="verticalAlign=top;align=left;overflow=fill;html=1;whiteSpace=wrap;fillColor=#d5e8d4;strokeColor=#82b366;" parent="1" vertex="1">
          <mxGeometry x="510" y="250" width="150" height="80" as="geometry" />
        </mxCell>
        <mxCell id="PS2yi4pKl5YuFN-2JHLJ-6" style="edgeStyle=orthogonalEdgeStyle;rounded=0;orthogonalLoop=1;jettySize=auto;html=1;" parent="1" source="PS2yi4pKl5YuFN-2JHLJ-5" target="PS2yi4pKl5YuFN-2JHLJ-3" edge="1">
          <mxGeometry relative="1" as="geometry" />
        </mxCell>
        <mxCell id="PS2yi4pKl5YuFN-2JHLJ-7" value="1：n" style="edgeLabel;html=1;align=center;verticalAlign=middle;resizable=0;points=[];" parent="PS2yi4pKl5YuFN-2JHLJ-6" vertex="1" connectable="0">
          <mxGeometry x="-0.0489" y="1" relative="1" as="geometry">
            <mxPoint as="offset" />
          </mxGeometry>
        </mxCell>
        <mxCell id="PS2yi4pKl5YuFN-2JHLJ-5" value="&lt;div style=&quot;box-sizing:border-box;width:100%;background:#e4e4e4;padding:2px;&quot;&gt;活动&lt;/div&gt;&lt;table style=&quot;width:100%;font-size:1em;&quot; cellpadding=&quot;2&quot; cellspacing=&quot;0&quot;&gt;&lt;tbody&gt;&lt;tr&gt;&lt;td&gt;PK&lt;/td&gt;&lt;td&gt;活动Id&lt;/td&gt;&lt;/tr&gt;&lt;tr&gt;&lt;td&gt;&lt;/td&gt;&lt;td&gt;&lt;br&gt;&lt;/td&gt;&lt;/tr&gt;&lt;tr&gt;&lt;td&gt;&lt;/td&gt;&lt;td&gt;&lt;br&gt;&lt;/td&gt;&lt;/tr&gt;&lt;/tbody&gt;&lt;/table&gt;" style="verticalAlign=top;align=left;overflow=fill;html=1;whiteSpace=wrap;" parent="1" vertex="1">
          <mxGeometry x="210" y="80" width="150" height="80" as="geometry" />
        </mxCell>
        <mxCell id="vS3xbVpzAr4w5fPz4_WH-8" value="" style="edgeStyle=orthogonalEdgeStyle;rounded=0;orthogonalLoop=1;jettySize=auto;html=1;" edge="1" parent="1" source="vS3xbVpzAr4w5fPz4_WH-1" target="vS3xbVpzAr4w5fPz4_WH-2">
          <mxGeometry relative="1" as="geometry" />
        </mxCell>
        <mxCell id="vS3xbVpzAr4w5fPz4_WH-1" value="试发" style="rounded=1;whiteSpace=wrap;html=1;" vertex="1" parent="1">
          <mxGeometry x="180" y="410" width="90" height="40" as="geometry" />
        </mxCell>
        <mxCell id="vS3xbVpzAr4w5fPz4_WH-9" value="" style="edgeStyle=orthogonalEdgeStyle;rounded=0;orthogonalLoop=1;jettySize=auto;html=1;" edge="1" parent="1" source="vS3xbVpzAr4w5fPz4_WH-2" target="vS3xbVpzAr4w5fPz4_WH-5">
          <mxGeometry relative="1" as="geometry" />
        </mxCell>
        <mxCell id="vS3xbVpzAr4w5fPz4_WH-2" value="调用计算接口&lt;br&gt;试发人员" style="rounded=0;whiteSpace=wrap;html=1;" vertex="1" parent="1">
          <mxGeometry x="172.5" y="500" width="105" height="40" as="geometry" />
        </mxCell>
        <mxCell id="vS3xbVpzAr4w5fPz4_WH-10" style="edgeStyle=orthogonalEdgeStyle;rounded=0;orthogonalLoop=1;jettySize=auto;html=1;" edge="1" parent="1" source="vS3xbVpzAr4w5fPz4_WH-5" target="vS3xbVpzAr4w5fPz4_WH-6">
          <mxGeometry relative="1" as="geometry">
            <Array as="points">
              <mxPoint x="130" y="615" />
            </Array>
          </mxGeometry>
        </mxCell>
        <mxCell id="vS3xbVpzAr4w5fPz4_WH-11" value="成功" style="edgeLabel;html=1;align=center;verticalAlign=middle;resizable=0;points=[];" vertex="1" connectable="0" parent="vS3xbVpzAr4w5fPz4_WH-10">
          <mxGeometry x="0.152" y="-1" relative="1" as="geometry">
            <mxPoint as="offset" />
          </mxGeometry>
        </mxCell>
        <mxCell id="vS3xbVpzAr4w5fPz4_WH-12" style="edgeStyle=orthogonalEdgeStyle;rounded=0;orthogonalLoop=1;jettySize=auto;html=1;" edge="1" parent="1" source="vS3xbVpzAr4w5fPz4_WH-5" target="vS3xbVpzAr4w5fPz4_WH-7">
          <mxGeometry relative="1" as="geometry">
            <Array as="points">
              <mxPoint x="318" y="615" />
            </Array>
          </mxGeometry>
        </mxCell>
        <mxCell id="vS3xbVpzAr4w5fPz4_WH-13" value="失败" style="edgeLabel;html=1;align=center;verticalAlign=middle;resizable=0;points=[];" vertex="1" connectable="0" parent="vS3xbVpzAr4w5fPz4_WH-12">
          <mxGeometry x="0.1946" y="-3" relative="1" as="geometry">
            <mxPoint as="offset" />
          </mxGeometry>
        </mxCell>
        <mxCell id="vS3xbVpzAr4w5fPz4_WH-5" value="计算运行&lt;br&gt;成功" style="rhombus;whiteSpace=wrap;html=1;" vertex="1" parent="1">
          <mxGeometry x="185" y="590" width="80" height="50" as="geometry" />
        </mxCell>
        <mxCell id="vS3xbVpzAr4w5fPz4_WH-6" value="成功通知" style="rounded=0;whiteSpace=wrap;html=1;" vertex="1" parent="1">
          <mxGeometry x="80" y="710" width="105" height="40" as="geometry" />
        </mxCell>
        <mxCell id="vS3xbVpzAr4w5fPz4_WH-7" value="失败通知&lt;br&gt;失败原因" style="rounded=0;whiteSpace=wrap;html=1;" vertex="1" parent="1">
          <mxGeometry x="265" y="710" width="105" height="40" as="geometry" />
        </mxCell>
        <mxCell id="vS3xbVpzAr4w5fPz4_WH-18" value="" style="edgeStyle=orthogonalEdgeStyle;rounded=0;orthogonalLoop=1;jettySize=auto;html=1;" edge="1" parent="1" source="vS3xbVpzAr4w5fPz4_WH-14" target="vS3xbVpzAr4w5fPz4_WH-15">
          <mxGeometry relative="1" as="geometry" />
        </mxCell>
        <mxCell id="vS3xbVpzAr4w5fPz4_WH-14" value="定时计算" style="rounded=1;whiteSpace=wrap;html=1;" vertex="1" parent="1">
          <mxGeometry x="510" y="410" width="90" height="40" as="geometry" />
        </mxCell>
        <mxCell id="vS3xbVpzAr4w5fPz4_WH-22" value="" style="edgeStyle=orthogonalEdgeStyle;rounded=0;orthogonalLoop=1;jettySize=auto;html=1;" edge="1" parent="1" source="vS3xbVpzAr4w5fPz4_WH-15" target="vS3xbVpzAr4w5fPz4_WH-21">
          <mxGeometry relative="1" as="geometry" />
        </mxCell>
        <mxCell id="vS3xbVpzAr4w5fPz4_WH-15" value="设置定时计算时间" style="rounded=0;whiteSpace=wrap;html=1;" vertex="1" parent="1">
          <mxGeometry x="502.5" y="500" width="105" height="40" as="geometry" />
        </mxCell>
        <mxCell id="vS3xbVpzAr4w5fPz4_WH-20" value="" style="edgeStyle=orthogonalEdgeStyle;rounded=0;orthogonalLoop=1;jettySize=auto;html=1;" edge="1" parent="1" source="vS3xbVpzAr4w5fPz4_WH-16" target="vS3xbVpzAr4w5fPz4_WH-17">
          <mxGeometry relative="1" as="geometry" />
        </mxCell>
        <mxCell id="vS3xbVpzAr4w5fPz4_WH-16" value="定时任务扫描" style="rounded=0;whiteSpace=wrap;html=1;" vertex="1" parent="1">
          <mxGeometry x="502.5" y="660" width="105" height="40" as="geometry" />
        </mxCell>
        <mxCell id="vS3xbVpzAr4w5fPz4_WH-17" value="到点触发计算接口" style="rounded=0;whiteSpace=wrap;html=1;" vertex="1" parent="1">
          <mxGeometry x="502.5" y="745" width="105" height="40" as="geometry" />
        </mxCell>
        <mxCell id="vS3xbVpzAr4w5fPz4_WH-23" value="" style="edgeStyle=orthogonalEdgeStyle;rounded=0;orthogonalLoop=1;jettySize=auto;html=1;" edge="1" parent="1" source="vS3xbVpzAr4w5fPz4_WH-21" target="vS3xbVpzAr4w5fPz4_WH-16">
          <mxGeometry relative="1" as="geometry" />
        </mxCell>
        <mxCell id="vS3xbVpzAr4w5fPz4_WH-21" value="添加定时任务" style="rounded=0;whiteSpace=wrap;html=1;" vertex="1" parent="1">
          <mxGeometry x="502.5" y="580" width="105" height="40" as="geometry" />
        </mxCell>
        <mxCell id="vS3xbVpzAr4w5fPz4_WH-30" value="" style="edgeStyle=orthogonalEdgeStyle;rounded=0;orthogonalLoop=1;jettySize=auto;html=1;" edge="1" parent="1" source="vS3xbVpzAr4w5fPz4_WH-24" target="vS3xbVpzAr4w5fPz4_WH-26">
          <mxGeometry relative="1" as="geometry" />
        </mxCell>
        <mxCell id="vS3xbVpzAr4w5fPz4_WH-24" value="发布报告" style="rounded=1;whiteSpace=wrap;html=1;" vertex="1" parent="1">
          <mxGeometry x="760" y="410" width="90" height="40" as="geometry" />
        </mxCell>
        <mxCell id="vS3xbVpzAr4w5fPz4_WH-32" value="" style="edgeStyle=orthogonalEdgeStyle;rounded=0;orthogonalLoop=1;jettySize=auto;html=1;" edge="1" parent="1" source="vS3xbVpzAr4w5fPz4_WH-25" target="vS3xbVpzAr4w5fPz4_WH-27">
          <mxGeometry relative="1" as="geometry" />
        </mxCell>
        <mxCell id="vS3xbVpzAr4w5fPz4_WH-25" value="调用计算接口&lt;br&gt;获取发布人员" style="rounded=0;whiteSpace=wrap;html=1;" vertex="1" parent="1">
          <mxGeometry x="752.5" y="590" width="105" height="40" as="geometry" />
        </mxCell>
        <mxCell id="vS3xbVpzAr4w5fPz4_WH-31" value="" style="edgeStyle=orthogonalEdgeStyle;rounded=0;orthogonalLoop=1;jettySize=auto;html=1;" edge="1" parent="1" source="vS3xbVpzAr4w5fPz4_WH-26" target="vS3xbVpzAr4w5fPz4_WH-25">
          <mxGeometry relative="1" as="geometry" />
        </mxCell>
        <mxCell id="vS3xbVpzAr4w5fPz4_WH-33" value="立即发布" style="edgeLabel;html=1;align=center;verticalAlign=middle;resizable=0;points=[];" vertex="1" connectable="0" parent="vS3xbVpzAr4w5fPz4_WH-31">
          <mxGeometry x="-0.584" relative="1" as="geometry">
            <mxPoint as="offset" />
          </mxGeometry>
        </mxCell>
        <mxCell id="vS3xbVpzAr4w5fPz4_WH-34" value="" style="edgeStyle=orthogonalEdgeStyle;rounded=0;orthogonalLoop=1;jettySize=auto;html=1;" edge="1" parent="1" source="vS3xbVpzAr4w5fPz4_WH-26" target="vS3xbVpzAr4w5fPz4_WH-28">
          <mxGeometry relative="1" as="geometry" />
        </mxCell>
        <mxCell id="vS3xbVpzAr4w5fPz4_WH-35" value="定时发布" style="edgeLabel;html=1;align=center;verticalAlign=middle;resizable=0;points=[];" vertex="1" connectable="0" parent="vS3xbVpzAr4w5fPz4_WH-34">
          <mxGeometry x="-0.1832" y="1" relative="1" as="geometry">
            <mxPoint as="offset" />
          </mxGeometry>
        </mxCell>
        <mxCell id="vS3xbVpzAr4w5fPz4_WH-26" value="立即发布" style="rhombus;whiteSpace=wrap;html=1;" vertex="1" parent="1">
          <mxGeometry x="765" y="490" width="80" height="50" as="geometry" />
        </mxCell>
        <mxCell id="vS3xbVpzAr4w5fPz4_WH-27" value="根据通知方式&lt;br&gt;发通知/邮件" style="rounded=0;whiteSpace=wrap;html=1;" vertex="1" parent="1">
          <mxGeometry x="752.5" y="680" width="105" height="40" as="geometry" />
        </mxCell>
        <mxCell id="vS3xbVpzAr4w5fPz4_WH-36" value="" style="edgeStyle=orthogonalEdgeStyle;rounded=0;orthogonalLoop=1;jettySize=auto;html=1;" edge="1" parent="1" source="vS3xbVpzAr4w5fPz4_WH-28" target="vS3xbVpzAr4w5fPz4_WH-29">
          <mxGeometry relative="1" as="geometry" />
        </mxCell>
        <mxCell id="vS3xbVpzAr4w5fPz4_WH-28" value="添加定时任务" style="rounded=0;whiteSpace=wrap;html=1;" vertex="1" parent="1">
          <mxGeometry x="940" y="495" width="105" height="40" as="geometry" />
        </mxCell>
        <mxCell id="vS3xbVpzAr4w5fPz4_WH-37" value="" style="edgeStyle=orthogonalEdgeStyle;rounded=0;orthogonalLoop=1;jettySize=auto;html=1;" edge="1" parent="1" source="vS3xbVpzAr4w5fPz4_WH-29" target="vS3xbVpzAr4w5fPz4_WH-25">
          <mxGeometry relative="1" as="geometry" />
        </mxCell>
        <mxCell id="vS3xbVpzAr4w5fPz4_WH-29" value="到点触发" style="rounded=0;whiteSpace=wrap;html=1;" vertex="1" parent="1">
          <mxGeometry x="940" y="590" width="105" height="40" as="geometry" />
        </mxCell>
        <mxCell id="vS3xbVpzAr4w5fPz4_WH-43" value="" style="edgeStyle=orthogonalEdgeStyle;rounded=0;orthogonalLoop=1;jettySize=auto;html=1;" edge="1" parent="1" source="vS3xbVpzAr4w5fPz4_WH-38" target="vS3xbVpzAr4w5fPz4_WH-39">
          <mxGeometry relative="1" as="geometry" />
        </mxCell>
        <mxCell id="vS3xbVpzAr4w5fPz4_WH-38" value="查看报告" style="rounded=1;whiteSpace=wrap;html=1;" vertex="1" parent="1">
          <mxGeometry x="265" y="850" width="90" height="40" as="geometry" />
        </mxCell>
        <mxCell id="vS3xbVpzAr4w5fPz4_WH-44" value="" style="edgeStyle=orthogonalEdgeStyle;rounded=0;orthogonalLoop=1;jettySize=auto;html=1;" edge="1" parent="1" source="vS3xbVpzAr4w5fPz4_WH-39" target="vS3xbVpzAr4w5fPz4_WH-41">
          <mxGeometry relative="1" as="geometry" />
        </mxCell>
        <mxCell id="vS3xbVpzAr4w5fPz4_WH-39" value="通知标识&lt;br&gt;试发or正式发布" style="rounded=0;whiteSpace=wrap;html=1;" vertex="1" parent="1">
          <mxGeometry x="257.5" y="930" width="105" height="40" as="geometry" />
        </mxCell>
        <mxCell id="vS3xbVpzAr4w5fPz4_WH-63" value="" style="edgeStyle=orthogonalEdgeStyle;rounded=0;orthogonalLoop=1;jettySize=auto;html=1;" edge="1" parent="1" source="vS3xbVpzAr4w5fPz4_WH-41" target="vS3xbVpzAr4w5fPz4_WH-62">
          <mxGeometry relative="1" as="geometry" />
        </mxCell>
        <mxCell id="vS3xbVpzAr4w5fPz4_WH-41" value="获取计算结果&lt;br&gt;字典、页面Ids" style="rounded=0;whiteSpace=wrap;html=1;" vertex="1" parent="1">
          <mxGeometry x="257.5" y="1020" width="105" height="40" as="geometry" />
        </mxCell>
        <mxCell id="vS3xbVpzAr4w5fPz4_WH-42" value="组装数据&lt;br&gt;页面排序等" style="rounded=0;whiteSpace=wrap;html=1;" vertex="1" parent="1">
          <mxGeometry x="257.5" y="1260" width="105" height="40" as="geometry" />
        </mxCell>
        <mxCell id="vS3xbVpzAr4w5fPz4_WH-55" value="" style="edgeStyle=orthogonalEdgeStyle;rounded=0;orthogonalLoop=1;jettySize=auto;html=1;" edge="1" parent="1" source="vS3xbVpzAr4w5fPz4_WH-46" target="vS3xbVpzAr4w5fPz4_WH-47">
          <mxGeometry relative="1" as="geometry" />
        </mxCell>
        <mxCell id="vS3xbVpzAr4w5fPz4_WH-46" value="提醒计算报告&lt;br&gt;定时任务" style="rounded=1;whiteSpace=wrap;html=1;" vertex="1" parent="1">
          <mxGeometry x="540" y="850" width="90" height="40" as="geometry" />
        </mxCell>
        <mxCell id="vS3xbVpzAr4w5fPz4_WH-56" value="" style="edgeStyle=orthogonalEdgeStyle;rounded=0;orthogonalLoop=1;jettySize=auto;html=1;" edge="1" parent="1" source="vS3xbVpzAr4w5fPz4_WH-47" target="vS3xbVpzAr4w5fPz4_WH-51">
          <mxGeometry relative="1" as="geometry" />
        </mxCell>
        <mxCell id="vS3xbVpzAr4w5fPz4_WH-47" value="获取开启报告租户&lt;br&gt;CustomSetting" style="rounded=0;whiteSpace=wrap;html=1;" vertex="1" parent="1">
          <mxGeometry x="532.5" y="930" width="105" height="40" as="geometry" />
        </mxCell>
        <mxCell id="vS3xbVpzAr4w5fPz4_WH-57" value="" style="edgeStyle=orthogonalEdgeStyle;rounded=0;orthogonalLoop=1;jettySize=auto;html=1;" edge="1" parent="1" source="vS3xbVpzAr4w5fPz4_WH-51" target="vS3xbVpzAr4w5fPz4_WH-52">
          <mxGeometry relative="1" as="geometry" />
        </mxCell>
        <mxCell id="vS3xbVpzAr4w5fPz4_WH-51" value="获取当前为统计结束日期次日的报告" style="rounded=0;whiteSpace=wrap;html=1;" vertex="1" parent="1">
          <mxGeometry x="532.5" y="1010" width="105" height="40" as="geometry" />
        </mxCell>
        <mxCell id="vS3xbVpzAr4w5fPz4_WH-58" value="" style="edgeStyle=orthogonalEdgeStyle;rounded=0;orthogonalLoop=1;jettySize=auto;html=1;" edge="1" parent="1" source="vS3xbVpzAr4w5fPz4_WH-52" target="vS3xbVpzAr4w5fPz4_WH-53">
          <mxGeometry relative="1" as="geometry" />
        </mxCell>
        <mxCell id="vS3xbVpzAr4w5fPz4_WH-59" value="否" style="edgeLabel;html=1;align=center;verticalAlign=middle;resizable=0;points=[];" vertex="1" connectable="0" parent="vS3xbVpzAr4w5fPz4_WH-58">
          <mxGeometry x="-0.184" relative="1" as="geometry">
            <mxPoint as="offset" />
          </mxGeometry>
        </mxCell>
        <mxCell id="vS3xbVpzAr4w5fPz4_WH-52" value="计算过报告" style="rhombus;whiteSpace=wrap;html=1;" vertex="1" parent="1">
          <mxGeometry x="545" y="1090" width="80" height="50" as="geometry" />
        </mxCell>
        <mxCell id="vS3xbVpzAr4w5fPz4_WH-60" value="" style="edgeStyle=orthogonalEdgeStyle;rounded=0;orthogonalLoop=1;jettySize=auto;html=1;" edge="1" parent="1" source="vS3xbVpzAr4w5fPz4_WH-53" target="vS3xbVpzAr4w5fPz4_WH-54">
          <mxGeometry relative="1" as="geometry" />
        </mxCell>
        <mxCell id="vS3xbVpzAr4w5fPz4_WH-61" value="否" style="edgeLabel;html=1;align=center;verticalAlign=middle;resizable=0;points=[];" vertex="1" connectable="0" parent="vS3xbVpzAr4w5fPz4_WH-60">
          <mxGeometry x="-0.104" y="3" relative="1" as="geometry">
            <mxPoint as="offset" />
          </mxGeometry>
        </mxCell>
        <mxCell id="vS3xbVpzAr4w5fPz4_WH-53" value="设置&lt;br&gt;定时计算" style="rhombus;whiteSpace=wrap;html=1;" vertex="1" parent="1">
          <mxGeometry x="545" y="1190" width="80" height="50" as="geometry" />
        </mxCell>
        <mxCell id="vS3xbVpzAr4w5fPz4_WH-54" value="给报告创建人&lt;br&gt;发通知" style="rounded=0;whiteSpace=wrap;html=1;" vertex="1" parent="1">
          <mxGeometry x="532.5" y="1290" width="105" height="40" as="geometry" />
        </mxCell>
        <mxCell id="vS3xbVpzAr4w5fPz4_WH-66" value="" style="edgeStyle=orthogonalEdgeStyle;rounded=0;orthogonalLoop=1;jettySize=auto;html=1;" edge="1" parent="1" source="vS3xbVpzAr4w5fPz4_WH-62" target="vS3xbVpzAr4w5fPz4_WH-65">
          <mxGeometry relative="1" as="geometry" />
        </mxCell>
        <mxCell id="vS3xbVpzAr4w5fPz4_WH-62" value="根据页面Ids获取页面及页面分支" style="rounded=0;whiteSpace=wrap;html=1;" vertex="1" parent="1">
          <mxGeometry x="257.5" y="1100" width="105" height="40" as="geometry" />
        </mxCell>
        <mxCell id="vS3xbVpzAr4w5fPz4_WH-67" value="" style="edgeStyle=orthogonalEdgeStyle;rounded=0;orthogonalLoop=1;jettySize=auto;html=1;" edge="1" parent="1" source="vS3xbVpzAr4w5fPz4_WH-65" target="vS3xbVpzAr4w5fPz4_WH-42">
          <mxGeometry relative="1" as="geometry" />
        </mxCell>
        <mxCell id="vS3xbVpzAr4w5fPz4_WH-65" value="页面分支：背景meteId换取Url" style="rounded=0;whiteSpace=wrap;html=1;" vertex="1" parent="1">
          <mxGeometry x="257.5" y="1180" width="105" height="40" as="geometry" />
        </mxCell>
      </root>
    </mxGraphModel>
  </diagram>
</mxfile>
